<svg xmlns="http://www.w3.org/2000/svg" width="980" height="940" version="1.0" viewBox="0 0 735 705"><path d="M364.4 98.3c-9.2 3.7-18.6 10.1-25.9 17.6-3.8 3.8-6.9 5.8-13 8.3-11.9 4.7-34.6 16.2-46 23.1-23.9 14.5-48.9 35.4-70.9 59.2-11 11.9-19.3 22.3-25.5 31.9-1.3 1.9-6.4 5.2-16.3 10.3-27.7 14.4-43.4 27.2-58.2 47.3-4.7 6.4-13.1 22.2-16.6 31-8.5 22 2.8 48.3 25.7 59.7 11.3 5.7 17.5 6.8 29.1 5.5 7.2-.8 11.2-1.9 17.2-4.8 7.4-3.4 8.3-3.6 14.1-3 8.5 1 27.5 5.8 39.4 10.1 5.5 1.9 20.2 8.6 32.7 14.7l22.7 11.2-.2 24.5c-.2 26.7.3 30.4 5.3 37.7 7.8 11.6 19.6 10.9 26.5-1.7 2.6-4.8 2.9-6.5 3.3-16.4.2-6 0-15-.5-19.9-.7-6.9-.6-8.9.4-9.3 3.4-1.3 43.9 13.4 55.4 20.2 12.1 7 24 13.1 29.9 15.1 3 1 6.1 2.3 6.8 2.8 1.9 1.4 1.6 3.4-5.9 39.6-5.7 27.3-3.5 43.5 7.3 53.5 5.7 5.3 8 6.5 12.6 6.5 4.8 0 9.8-3.2 12.6-8 3.2-5.4 2.8-18.3-.9-33-4.1-15.9-4.2-27.6-.1-37.3 1.5-3.7 3.4-6.7 4.2-6.7.7 0 7.1 2.6 14.1 5.8s19.4 8 27.5 10.8c8.1 2.7 15 5.5 15.3 6.2.3.8-1.5 9.1-3.9 18.5-11.2 43.5-11.8 58.3-3 72.1 6.4 10.1 16.4 11.9 24.8 4.5 11.8-10.4 14.3-26 8.6-53.9-3-14.5-3.9-28.1-2.1-30.9.8-1.2 2.1-1 7.8 1.6 3.7 1.7 9.4 4 12.5 5.3 3.2 1.2 6.1 2.7 6.6 3.4.5.6 1.2 5 1.5 9.8.7 13.3 4.7 17.6 13.3 14.3 5.9-2.3 13.1-10.5 18.5-21.3 4.2-8.3 4.4-9.2 4.7-19.2.4-11.3-.9-21-5.1-36.5-1.4-5-3.5-13.3-4.7-18.5-4.8-20.6-11.3-41.4-19.2-61.5-4.9-12.3-6.3-15.4-14.3-30-1.8-3.3-4.5-8.3-6-11-1.5-2.8-7.3-12.3-12.9-21.3-5.5-8.9-12.7-20.4-15.9-25.5-9.6-15.5-20.2-37.5-25.2-52.3-7.7-23-24.4-54.6-36.4-69-1.4-1.7-3.3-4-4.1-5-.8-1.1-2.7-3.4-4.1-5.1l-2.7-3.2 1.5-6.8c1.1-5.4 1.2-8.6.3-15.6-3.4-28.2-14.2-45.9-33.5-55.2-9.9-4.8-17.6-4.9-29.1-.2m23.5 5.7c12.9 5 22.7 15.8 27.5 30.2 4.3 12.7 6 29.1 3.5 35.5-1.2 3.2-7.7 10.3-9.5 10.3-.7 0-1.3-3.2-1.7-9.3-.2-5-.8-10-1.2-11-1.6-3.9-2.5-1.2-2.5 7.4 0 13.4-1.2 16.9-6.7 20.2-2.5 1.6-5 2.6-5.6 2.4-.7-.2-1-4.2-.8-11.3.2-9 0-11.3-1.3-12.3-2.1-1.8-2.4-.8-2.8 11.4-.4 12.8-2.2 16.5-9.7 20.7-7.6 4.3-8.1 3.8-7.4-7.5.6-10.5 0-14.7-2.2-14.7-1.2 0-1.5 1.4-1.5 6.2 0 8.1-1.7 18.7-3.5 21.4-1.5 2.3-16.7 7.9-18.9 7.1-1.1-.5-1-1.8.5-7.4 2-7.1 2.5-16.3 1-16.3-.5 0-1.5 2.4-2.1 5.2-2.2 9.2-6.2 18.9-8.4 20.3-2.5 1.5-11.3 2.8-12 1.7-.3-.5.2-4.6.9-9.1 1.6-9 1.2-13.9-1-12.1-.8.6-1.6 3-2 5.3-1.1 7-3.4 14.5-5.1 16.1-2.2 2.2-7 2-9.5-.5-1.8-1.8-2-3-1.7-9.7.2-6.3 0-7.7-1.3-8-1.6-.3-2.6 2-5.2 13.3-1.5 6-6.4 19-9.3 24.8-2.1 4-3 2.3-3.9-7.3-.7-7.7-1.8-11.1-3.1-9.7-.5.4-.8 7.6-.8 16-.1 14.2-.3 15.5-2.6 20.2-3.2 6.2-4.7 6.7-5.5 1.8-1.4-9.5-2.7-14.2-4.2-15.5-1.5-1.2-1.5-.8-1 3.7.4 2.7 1 9.1 1.3 14.2.6 8.7.5 9.5-2 14.8-3.2 6.5-7.4 11.7-8.7 10.9-.5-.3-.9-4.1-.9-8.5 0-8.5-1.7-17.2-3.1-16.3-.5.2-.8 6.2-.7 13.2.1 11.6-.1 13.2-2.4 18.3-2.4 5.3-9 12-10.4 10.6-.4-.3-.6-5.3-.5-11.1.2-8.8 0-10.5-1.2-10-1.6.6-2.7 4.7-2.7 9.9 0 1.7-.5 5.8-1.2 8.9-.9 4.8-1.7 6.2-4.2 7.7-1.7 1-4.6 1.9-6.3 1.9-4 0-4.8-2.3-3.3-9.5 2.6-12.5 3.3-17.6 2.4-18.5-1.9-1.9-3.4 1-6.7 13.5-3.6 13.9-5.5 16.4-6.9 9-1.3-7.4-2.4-10-4.3-10.4-1.5-.3-1.7.2-1.2 3 3.7 20.4 3.6 23.4-.3 31.8-1.9 3.9-3.4 6.1-4 5.5-.5-.5-1.4-4-2-7.8s-1.7-8.1-2.5-9.5c-1.2-2.3-1.4-2.4-2.1-.8-.3 1-.2 4.9.5 8.7 2.1 12.7 1 21.2-3.5 26.6-2 2.4-2.5 2.7-3.4 1.4-.5-.8-1-3.6-1-6.2 0-5.2-1.4-9.8-3-9.8-.6 0-1 3.9-1 10.2 0 16-.4 17.1-7.8 25-4.9 5.2-8.4 7.8-14.1 10.5-7.3 3.6-8 3.7-18.6 3.7h-11l-8.9-4.4c-14.3-7.2-23.1-18.6-26.1-33.8-1.1-5.4 2.2-16.8 8.6-29.8 11.4-23.3 26.6-38.6 57.1-57.3 8.2-5 12.7-6.2 11.9-3-3.9 15.1-.4 13.8 10.2-3.9 9.6-16 21.8-31.1 39.2-48.7 16-16.2 47-40.9 63.5-50.8 18.9-11.2 47.4-24.7 58.5-27.6 2.2-.6 5.7-1.1 7.8-1.1 3.1 0 3.8-.3 3.5-1.7-.2-1.2-1.6-2-4.1-2.4-2-.3-4-.8-4.3-1.2-2.9-2.9 9.5-11 24.6-16 3.5-1.2 11.3-.6 15.9 1.3m42.4 91.2c10.9 15.9 12.4 18.4 21.1 36.3 6.7 13.8 13.5 32 15.6 42 3.6 17.1 5.4 27.2 7.5 41.5 1.3 9.1 2.8 17.8 3.2 19.4.8 2.6 1 2.7 2.3 1.2 2.3-2.9 2.8-10.3 1.4-23.5-.8-6.9-1.4-14-1.3-15.6 0-2.9 0-2.9 1.5-1 .8 1.1 3.7 6.3 6.3 11.5 2.7 5.2 7.6 13.9 10.9 19.2 31.7 50.7 46.4 83.6 59.8 134.3 2.5 9.3 4.9 18.6 5.4 20.5.4 1.9 1.7 6.9 2.9 11 4.6 16.7 1.5 33.3-9 47.5-2 2.7-4.6 5.9-5.8 6.9-2 1.8-2.3 1.8-3.8.3-1.4-1.4-1.5-2.9-.4-14.9 1.4-15 .8-19.7-3.2-25.7-7.3-10.9-25.2-10.5-35 .9-7.4 8.7-9.1 23.2-4.8 43 5.8 26.8 4.2 41.5-5.4 49.8-4.7 4.2-7.9 4.1-12.1-.3-3.9-4.2-5.4-8.5-6.1-18.3-.8-9.7.7-18 8.5-48.2 6.5-25.3 6.5-25.6 6.6-39.5l.1-14-3.4-7c-5.6-11.3-9-16.3-12.7-18.6-1.9-1.2-3.8-1.9-4.1-1.5-.3.3 1.8 5.1 4.6 10.7 2.9 5.5 5 10.4 4.6 10.7-.3.3-3.4-.8-6.8-2.5-10.4-5.2-12.7-5.8-22.2-5.8-8 0-9.7.4-15.5 3.2-15.5 7.6-26 25-26 43.3 0 4 1.2 11.1 3.1 18.5 1.7 6.6 3.3 15.8 3.6 20.5.5 8.2.4 8.7-2.1 11.7-3.7 4.4-5.9 4.8-10.6 2.2-4.6-2.6-8.2-7.6-10.6-14.9-2.2-6.7-1.5-18.9 2.1-35.5 9.1-42.8 9.8-58.1 3.2-76-1.7-4.5-3.9-7.6-9.2-13.1-8.9-9.1-16.1-12.9-27.9-14.6-8.2-1.1-9.3-1.1-18.2 1.2-9.1 2.3-9.7 2.3-14.5.7-2.8-.9-7.6-3.1-10.5-4.9-6.5-3.9-6.9-6.3-.9-6.3 2.9 0 4-.4 4.3-1.7.5-2.7-4.2-5.1-8.9-4.5-7.5 1-12.2 6-16.5 17.3-2.3 6.1-2.6 8.3-2.5 19.6 0 7 .5 14.7 1.1 17 1.3 5.8 1.1 22.6-.3 26.5-1.6 4.3-5.1 8.1-8.1 8.9-3.6.9-6.9-1.8-10.1-8.4-2.8-5.6-2.9-5.9-2.8-23.2 0-9.6.6-22.3 1.3-28.1 1.5-12.9.9-26.5-1.6-33.8-2.4-7.2-11-16.6-17.9-19.6-8.4-3.7-14.5-4.1-14.5-1 0 .7 3.3 2.8 7.3 4.7 11.3 5.5 14.5 10.7 3.6 5.9-2.4-1.1-14.1-4.5-25.9-7.5-29.4-7.6-38-10.6-38-13.6 0-.9 1.2-3.2 2.6-5.1 4.6-6.2 13-21.2 18.8-34l2.6-5.6 7.3-.6c5.6-.5 8.9-1.5 14.7-4.4 10.2-5.2 23.9-18.3 31.8-30.6 7.3-11.3 24.3-43.2 26.8-50.4 1-2.9 2.5-5.5 3.3-5.8.9-.4 8.6-1.1 17.1-1.5 21.2-1.2 33.4-4.1 53.5-12.8 8.5-3.7 37.5-19.4 43-23.3 2.2-1.5 4.8-2.8 5.7-2.9 1 0 4.8 4.6 10.1 12.2M190.6 369c2.7 2.7 33.5 11.4 56.5 16 11.9 2.3 24.1 8.7 25.9 13.5.5 1.4 1.2 4.7 1.6 7.4.6 4.3.4 5.2-1.2 5.8-1.1.4-3.1-.2-5.3-1.5-9.9-6.1-32.1-16.5-44.1-20.7-9.9-3.5-24.9-7.3-35.7-9.1-5.4-.8-9.9-1.7-10.1-1.9s1.5-2.7 3.9-5.4c4.3-5 6.5-6.1 8.5-4.1m127.5 41.2c2.4 1.8 5 3.8 5.6 4.5.7.6 3.9 2.1 7 3.4 5.8 2.1 5.9 2.1 13.8.4 16-3.5 23.6-2.9 35.3 2.7 13.6 6.6 22.2 22.3 22.2 40.6 0 3.7-.3 4.2-2.3 4.2-3.2 0-11.3-4-23.4-11.7-18.2-11.4-42.8-21-62.1-24.3-4.2-.7-7.6-1.8-7.8-2.5-1.1-2.7 4.5-20.5 6.4-20.5.4 0 2.8 1.5 5.3 3.2m151 63.7c7.1 2.4 15.4 6.6 17.9 9.1 1.7 1.7 2 3.4 2 10 0 6-.4 8.2-1.4 8.6-1.2.5-13.9-4-18.8-6.7-1-.5-2.3-.9-2.9-.9-1.4 0-28.1-11-29.3-12.1-1.5-1.3 1.5-4.1 7.9-7 7.4-3.4 16.2-3.8 24.6-1m65.6 33.1c3.8 2.3 4.8 4 5.7 9.9 1 6.7-.4 7.6-6.8 4.1-2.8-1.6-8.2-3.6-11.9-4.6-5-1.2-6.7-2.1-6.7-3.4 0-2.1 2.6-4.5 7-6.4 4.8-2.1 8.9-2 12.7.4"/><path d="M385 131c0 1.1.4 2 .9 2 1.3 0 3.2-2.6 2.4-3.3-1.3-1.4-3.3-.6-3.3 1.3M337.4 149.4c-.4 1-.2 2.2.4 2.8.8.8 1.3.7 1.8-.6.4-1 .2-2.2-.4-2.8-.8-.8-1.3-.7-1.8.6M368.3 156.2c.2.7 1 1.3 1.7 1.3s1.5-.6 1.8-1.3c.2-.7-.5-1.2-1.8-1.2s-2 .5-1.7 1.2M296 165.5c0 .8.5 1.5 1 1.5.6 0 1-.7 1-1.5s-.4-1.5-1-1.5c-.5 0-1 .7-1 1.5M256.4 197.5c-.8 2.1.2 4.5 1.9 4.5.8 0 2-.7 2.7-1.5 1-1.2 1-1.8 0-3-.7-.8-1.9-1.5-2.7-1.5-.7 0-1.6.7-1.9 1.5M207.4 240.5c-.4.9-.2 2.1.3 2.6 1.4 1.4 4.5-.1 4.1-2-.4-2.2-3.7-2.6-4.4-.6M238.4 250.4c-.8 2.2.3 3.3 1.8 1.8.9-.9.9-1.5 0-2.4s-1.3-.7-1.8.6M186.6 273.5c.4.8.7 1.5.9 1.5s.5-.7.9-1.5c.3-.9 0-1.5-.9-1.5s-1.2.6-.9 1.5M147.3 295.7c-1.9.7-1.6 4 .4 4.7 1.6.7 3.3-.8 3.3-3 0-1.4-2-2.3-3.7-1.7M115.2 322.4c-4.2 1.6-11.5 8.6-8.9 8.6 1 0 2.7-.5 3.8-1.1 6.2-3.3 15.3.2 24.2 9.3 6.5 6.7 7.4 8.5 9.1 18 1.4 8 2.9 7.9 5.1-.3 2-7.2 1.9-10.9-.4-16.9-4.3-11.3-14.2-19.1-24.1-18.9-3 .1-7 .7-8.8 1.3M162.7 323.6c-.4.4-.7 1.8-.7 3.1 0 1.8.5 2.4 1.8 2.1 1-.2 1.7-1.2 1.7-2.7 0-2.4-1.5-3.7-2.8-2.5M392.3 227.5c-8.6 2.4-13.9 5.4-19.1 10.9-8.5 9-11.6 17.7-11.6 33.1 0 7.3.4 9.9 2.2 13.6 7.1 14.4 28.3 25.1 43.8 21.9 18-3.7 29.4-17.7 29.4-36.3 0-14.4-12.9-34-27-41.2-6.1-3.1-11.5-3.7-17.7-2m-3.9 22.6c3.4 2.7 3.3 5.1-.5 8.3-3.6 3-8.4 3.4-9.8.8-2-3.8 1.8-11.2 5.8-11.2 1 0 3 .9 4.5 2.1m26.8 12.1c2.2 4.7.9 9.5-3 10.5-5.4 1.3-8.2-6.9-4.1-12.1 2.7-3.5 5-3 7.1 1.6m-20.8 10.1c2.9 2.1 3.6 7.6 1.5 11.8-1.9 3.8-3.5 4.9-7.4 4.9-5.2 0-7.2-8.6-3.5-14.8 2.2-3.5 6.1-4.3 9.4-1.9M325.7 255.7c-1.2 1.1-.8 2.3.8 2.3.8 0 1.5-.7 1.5-1.5 0-1.6-1.2-2-2.3-.8M291 281.9c-8.8 1.7-18.6 9.6-23.2 18.6-6.1 11.7-7.1 19.9-3.7 30.6 4 12.6 15.7 21.9 31.5 24.9 14.2 2.8 30.3-5.1 37-18.1 5.7-11.1 5.7-26.1 0-36.9-3-5.5-8.7-12-12.9-14.7-6.6-4.2-19.7-6.2-28.7-4.4m-1.2 23.3c-.6 5.9-7.8 8.6-9.4 3.5-.8-2.6 3.5-6.7 7.2-6.7 2.2 0 2.5.4 2.2 3.2m23.6 3c3.1 4.4.9 8.8-4.3 8.8-5.7 0-6.4-5-1.4-9 3.2-2.5 3.8-2.5 5.7.2m-17.5 15.4c3.9 3.2 4.1 6.7.6 9-2.3 1.5-3.1 1.5-6.5.4-3.9-1.3-4.4-2.2-4.1-6.5.2-2.2 3.6-5.5 5.6-5.5.8 0 2.7 1.2 4.4 2.6M455.4 285.5c-.7 1.8.3 3.5 2.1 3.5 2.1 0 2.8-1.9 1.5-3.5-1.6-1.9-2.9-1.9-3.6 0M451.5 323.8c-4.7 2.9-9.1 8.6-10.9 14-1.4 4.1-1.6 8.6-1.4 26.8.3 24.7-.4 29.4-5.8 35.1-2.4 2.6-3.9 3.3-6.8 3.3-3 0-4-.5-5.6-3.3-2.9-4.6-2.6-12.2 1-24.6 4.5-15.4 3.8-24.6-2.1-29.5-3.4-2.9-6.7-3.3-10.7-1.2-7.2 3.8-10.2 10.2-10.2 22.1 0 8.2-.1 8.8-2.9 11.6-3.5 3.5-7.9 3.8-10.6.9-1.6-1.8-1.7-3.3-1.2-14 .5-10.4.3-13-1.4-18.5-2-6.4-6.6-12.5-9.5-12.5-1.8 0-1.8.7.4 3.8 4.5 6.6 5.5 11.1 5.3 25.2 0 7.4.4 14.9.9 16.6 2.9 8.6 16.1 8.6 21.8-.1 1.8-2.9 2.2-4.9 2.2-11.7 0-8.8 1.7-13.3 6.3-17 8.7-7 12.9 5.8 7.4 22.2-5.4 16-5.1 27.4.9 33.4 5.5 5.5 16.8 2.6 21.4-5.6 4.9-8.7 5.2-10.9 5.1-36.1-.2-28.7.3-30.6 10.8-38.5 1.4-1.1 2.1-2.4 1.7-3-1-1.7-2.6-1.5-6.1.6M482.9 357.5c-6.3 2.3-10.3 4.7-13.2 7.9-8.1 9.1-12.7 28.5-9.3 39.9 3.1 10.5 11.3 17.2 24.4 19.7 7.1 1.4 15.7.2 22.5-3.2 8.9-4.4 16.7-15.6 18.2-25.9.8-5.6-1.4-15.1-5.2-22.1-7.5-13.7-24.4-21.1-37.4-16.3M503 375c4.3 4.3 2.2 12-3.3 12-2.3 0-7.7-5.2-7.7-7.5 0-2.1 4.8-6.5 7.1-6.5 1.1 0 2.8.9 3.9 2m-22.3 5.8c.6.4 1.7 2 2.3 3.6 2.2 5.8-5.3 12.6-9 8.1-2.3-2.7-1.8-8.5.9-10.6 2.5-2 3.9-2.3 5.8-1.1m18.3 17.4c2.9 3.2 3.4 6.1 1.6 9.7-2.8 5.4-8.3 6.7-13 3-3-2.3-3.3-4.7-1.1-8.9 3.1-6 8.8-7.7 12.5-3.8M342 369.6c0 .8.5 1.2 1 .9.6-.4.8-1.1.5-1.6-.9-1.4-1.5-1.1-1.5.7M523.7 457.7c-1.2 1.1-.8 2.3.8 2.3.8 0 1.5-.7 1.5-1.5 0-1.6-1.2-2-2.3-.8"/></svg>